# xmcd
#
# Track frame offsets: 
#        182
#        12010
#        25882
#        44205
#        56855
#        76082
#        91665
#        105660
#        119807
#        138422
#
# Disc length: 2012 seconds
#
# Revision: 2
# Processed by: cddbd v1.5.2PL0 Copyright (c) Steve Scherf et al.
# Submitted via: ExactAudioCopy v0.99pb5
#
DISCID=8107da0a
DTITLE=Ken Holloway - He Who Made The Rain
DYEAR=1994
DGENRE=Christian Country
TTITLE0=Good Lovin'
TTITLE1=Not Enough Amazing Grace (with Shara Johnson)
TTITLE2=Don't Wanna Go Alone
TTITLE3=Hoedown
TTITLE4=I'm Not Gonna Fall To Pieces (with Lari White)
TTITLE5=He Who Made The Rain
TTITLE6=Rich Kids
TTITLE7=Snake Oil
TTITLE8=Momma Left The Light On
TTITLE9=I'm Still Holding On
EXTD=
EXTT0=
EXTT1=with Shara Johnson
EXTT2=
EXTT3=
EXTT4=with Lari White
EXTT5=
EXTT6=
EXTT7=
EXTT8=
EXTT9=
PLAYORDER=
